<svg width="69" height="70" viewBox="0 0 69 70" fill="none" xmlns="http://www.w3.org/2000/svg">
<mask id="mask0_1746_1151" style="mask-type:alpha" maskUnits="userSpaceOnUse" x="0" y="0" width="69" height="70">
<rect y="0.941406" width="69" height="69" rx="7.12766" fill="white"/>
</mask>
<g mask="url(#mask0_1746_1151)">
<rect y="0.941406" width="69" height="69" rx="7.12766" fill="url(#paint0_linear_1746_1151)" fill-opacity="0.1"/>
<mask id="mask1_1746_1151" style="mask-type:alpha" maskUnits="userSpaceOnUse" x="0" y="0" width="69" height="70">
<rect x="0.356383" y="1.29779" width="68.2872" height="68.2872" rx="6.77128" stroke="black" stroke-width="0.712766"/>
</mask>
<g mask="url(#mask1_1746_1151)">
<g filter="url(#filter0_f_1746_1151)">
<ellipse cx="63.7292" cy="9.76581" rx="17.7292" ry="26.4767" fill="white"/>
</g>
<g filter="url(#filter1_f_1746_1151)">
<ellipse cx="8.6276" cy="53.0939" rx="17.7292" ry="26.4767" fill="white"/>
</g>
</g>
</g>
<path d="M26 44V42H40V44H26ZM26 40.5L24.725 32.475C24.6917 32.475 24.6542 32.4792 24.6125 32.4875C24.5708 32.4958 24.5333 32.5 24.5 32.5C24.0833 32.5 23.7292 32.3542 23.4375 32.0625C23.1458 31.7708 23 31.4167 23 31C23 30.5833 23.1458 30.2292 23.4375 29.9375C23.7292 29.6458 24.0833 29.5 24.5 29.5C24.9167 29.5 25.2708 29.6458 25.5625 29.9375C25.8542 30.2292 26 30.5833 26 31C26 31.1167 25.9875 31.225 25.9625 31.325C25.9375 31.425 25.9083 31.5167 25.875 31.6L29 33L32.125 28.725C31.9417 28.5917 31.7917 28.4167 31.675 28.2C31.5583 27.9833 31.5 27.75 31.5 27.5C31.5 27.0833 31.6458 26.7292 31.9375 26.4375C32.2292 26.1458 32.5833 26 33 26C33.4167 26 33.7708 26.1458 34.0625 26.4375C34.3542 26.7292 34.5 27.0833 34.5 27.5C34.5 27.75 34.4417 27.9833 34.325 28.2C34.2083 28.4167 34.0583 28.5917 33.875 28.725L37 33L40.125 31.6C40.0917 31.5167 40.0625 31.425 40.0375 31.325C40.0125 31.225 40 31.1167 40 31C40 30.5833 40.1458 30.2292 40.4375 29.9375C40.7292 29.6458 41.0833 29.5 41.5 29.5C41.9167 29.5 42.2708 29.6458 42.5625 29.9375C42.8542 30.2292 43 30.5833 43 31C43 31.4167 42.8542 31.7708 42.5625 32.0625C42.2708 32.3542 41.9167 32.5 41.5 32.5C41.4667 32.5 41.4292 32.4958 41.3875 32.4875C41.3458 32.4792 41.3083 32.475 41.275 32.475L40 40.5H26ZM27.7 38.5H38.3L38.95 34.325L36.325 35.475L33 30.9L29.675 35.475L27.05 34.325L27.7 38.5Z" fill="white"/>
<defs>
<filter id="filter0_f_1746_1151" x="21.0532" y="-41.6577" width="85.3506" height="102.847" filterUnits="userSpaceOnUse" color-interpolation-filters="sRGB">
<feFlood flood-opacity="0" result="BackgroundImageFix"/>
<feBlend mode="normal" in="SourceGraphic" in2="BackgroundImageFix" result="shape"/>
<feGaussianBlur stdDeviation="12.4734" result="effect1_foregroundBlur_1746_1151"/>
</filter>
<filter id="filter1_f_1746_1151" x="-34.0484" y="1.67038" width="85.3506" height="102.847" filterUnits="userSpaceOnUse" color-interpolation-filters="sRGB">
<feFlood flood-opacity="0" result="BackgroundImageFix"/>
<feBlend mode="normal" in="SourceGraphic" in2="BackgroundImageFix" result="shape"/>
<feGaussianBlur stdDeviation="12.4734" result="effect1_foregroundBlur_1746_1151"/>
</filter>
<linearGradient id="paint0_linear_1746_1151" x1="34.3956" y1="0.941406" x2="36.1372" y2="69.9027" gradientUnits="userSpaceOnUse">
<stop stop-color="white"/>
<stop offset="1" stop-color="#999999"/>
</linearGradient>
</defs>
</svg>
